<?xml version="1.0" encoding="UTF-8"?>
<svg version="1.1" xmlns="http://www.w3.org/2000/svg" width="284" height="136">
<path d="M0 0 C4.29 0 8.58 0 13 0 C13 10.56 13 21.12 13 32 C25.21 32 37.42 32 50 32 C50 21.44 50 10.88 50 0 C54.62 0 59.24 0 64 0 C64 25.41 64 50.82 64 77 C59.38 77 54.76 77 50 77 C50 66.44 50 55.88 50 45 C38.12 45.33 26.24 45.66 14 46 C13.67 56.23 13.34 66.46 13 77 C8.71 77 4.42 77 0 77 C0 51.59 0 26.18 0 0 Z "  fill="#31B05E"   transform="translate(58,29)"/>
<path d="M0 0 C3.3 0 6.6 0 10 0 C10 10.56 10 21.12 10 32 C23.53 32 37.06 32 51 32 C51 21.44 51 10.88 51 0 C54.3 0 57.6 0 61 0 C61 24.09 61 48.18 61 73 C57.7 73 54.4 73 51 73 C51 62.44 51 51.88 51 41 C37.47 41 23.94 41 10 41 C10 51.56 10 62.12 10 73 C6.7 73 3.4 73 0 73 C0 48.91 0 24.82 0 0 Z " fill="#31B05E" transform="translate(157,31)"/>
<path d="M0 0 C3.96 0 7.92 0 12 0 C12 35.31 12 70.62 12 107 C8.04 107 4.08 107 0 107 C0 71.69 0 36.38 0 0 Z "  fill="#31B05E"   transform="translate(133,19)"/>
<path d="M0 0 C3.3 0 6.6 0 10 0 C10 10.56 10 21.12 10 32 C23.53 32 37.06 32 51 32 C51 21.44 51 10.88 51 0 C54.3 0 57.6 0 61 0 C61 24.09 61 48.18 61 73 C57.7 73 54.4 73 51 73 C51 62.44 51 51.88 51 41 C37.47 41 23.94 41 10 41 C10 51.56 10 62.12 10 73 C6.7 73 3.4 73 0 73 C0 48.91 0 24.82 0 0 Z M2 1 C2 24.43 2 47.86 2 72 C4.31 72 6.62 72 9 72 C9 61.44 9 50.88 9 40 C23.19 40 37.38 40 52 40 C52 50.56 52 61.12 52 72 C54.31 72 56.62 72 59 72 C59 48.9 59 25.8 59 2 C57.02 2 55.04 2 53 2 C52.67 12.23 52.34 22.46 52 33 C37.81 33 23.62 33 9 33 C8.67 22.44 8.34 11.88 8 1 C6.02 1 4.04 1 2 1 Z " fill="#4AA06A" transform="translate(157,31)"/>
<path d="M0 0 C3.3 0 6.6 0 10 0 C10 24.09 10 48.18 10 73 C6.7 73 3.4 73 0 73 C0 62.44 0 51.88 0 41 C0.33 41 0.66 41 1 41 C1 51.23 1 61.46 1 72 C3.31 72 5.62 72 8 72 C8 48.9 8 25.8 8 2 C6.02 2 4.04 2 2 2 C2.00523682 2.65484375 2.01047363 3.3096875 2.01586914 3.984375 C2.036827 6.98957333 2.0497195 9.99475621 2.0625 13 C2.07087891 14.02996094 2.07925781 15.05992188 2.08789062 16.12109375 C2.10613637 21.85025613 1.86475384 27.33484101 1 33 C0.67 33 0.34 33 0 33 C0 22.11 0 11.22 0 0 Z " fill="#3E9F62" transform="translate(208,31)"/>
</svg>
