<svg xmlns="http://www.w3.org/2000/svg" width="22" height="22" fill="none"><path d="M 5.579 0 L 0.079 0 L 0.079 5.5 C 0.079 8.301 2.172 10.613 4.88 10.956 C 2.134 11.264 0 13.594 0 16.422 L 0 21.922 L 5.5 21.922 C 8.301 21.922 10.613 19.828 10.956 17.12 C 11.264 19.866 13.594 22 16.422 22 L 21.922 22 L 21.922 16.5 C 21.922 13.699 19.828 11.387 17.12 11.044 C 19.866 10.736 22 8.406 22 5.579 L 22 0.079 L 16.5 0.079 C 13.699 0.079 11.387 2.172 11.044 4.88 C 10.736 2.134 8.406 0 5.579 0 Z" fill="rgb(140, 255, 46)"></path></svg>